<?xml version="1.0" encoding="UTF-8"?>
<svg width="179px" height="208px" viewBox="0 0 179 208" version="1.1" xmlns="http://www.w3.org/2000/svg" xmlns:xlink="http://www.w3.org/1999/xlink">
    <!-- Generator: Sketch 44.1 (41455) - http://www.bohemiancoding.com/sketch -->
    <title>Group 8</title>
    <desc>Created with Sketch.</desc>
    <defs></defs>
    <g id="Page-1" stroke="none" stroke-width="1" fill="none" fill-rule="evenodd">
        <g id="Group-8">
            <g id="Group-7">
                <g id="Group-6">
                    <g id="Group-4">
                        <g id="Group-3">
                            <path d="M174.254987,53.5768796 C159.479018,12.8653564 122.079355,2.84217094e-14 100.409154,2.84217094e-14 C78.9167539,3.14725937e-14 57.8994622,3.94318707 42.3765653,17.3475297 C25.2112243,32.1701568 19.4030247,50.39079 18.483502,64.3974801 C17.3499286,74.8585631 12.1804515,88.4494113 6.98261639,98.8686888 C5.42979058,101.981393 -2.09609931,114.010573 0.637321516,115.970707 C3.37074234,117.930841 9.71195698,120.860065 14.0534451,122.534094 C13.2747326,128.916969 17.7794297,166.329603 19.8860141,167.814249 C21.9925985,169.298894 49.9240746,170.686571 55.801125,175.010499 C61.6781754,179.334428 65.2060764,206.403313 66.7587807,207.893251 C67.7939168,208.886543 95.4227468,202.947961 149.645271,190.077507 C151.686571,189.463696 150.164774,149.83112 161.070532,129.948047 C163.958756,124.678046 166.477808,120.302455 168.705866,116.431065 C181.618179,93.9612198 181.060618,72.3281109 174.254987,53.5768796 Z" id="Shape-Copy-12" fill="#3B596A" fill-rule="nonzero" transform="translate(89.519988, 104.000000) scale(-1, 1) translate(-89.519988, -104.000000) "></path>
                            <path d="M39.6772436,117.565217 L104.85491,117.565217" id="Line-Copy-29" stroke="#F2DA52" stroke-width="13.4873495" stroke-linecap="round"></path>
                            <path d="M62.1389508,90.4347826 L127.316617,90.4347826" id="Line-Copy-30" stroke="#F2DA52" stroke-width="13.4873495" stroke-linecap="round"></path>
                            <path d="M39.6772436,63.3043478 L104.85491,63.3043478" id="Line-Copy-31" stroke="#F2DA52" stroke-width="13.4873495" stroke-linecap="round"></path>
                            <path d="M62.1389508,36.173913 L127.316617,36.173913" id="Line-Copy-32" stroke="#F2DA52" stroke-width="13.4873495" stroke-linecap="round"></path>
                        </g>
                    </g>
                </g>
            </g>
        </g>
    </g>
</svg>